HIERARCHY
ROOT Hips
{
	OFFSET -0.001795 -0.223333 0.028219
	CHANNELS 6 Xposition Yposition Zposition Zrotation Yrotation Xrotation 
	JOINT LeftUpLeg
	{
		OFFSET 0.069520 -0.091406 -0.006815
		CHANNELS 3 Zrotation Yrotation Xrotation
		JOINT LeftLeg
		{
			OFFSET 0.034277 -0.375199 -0.004496
			CHANNELS 3 Zrotation Yrotation Xrotation
			JOINT LeftFoot
			{
				OFFSET -0.013596 -0.397961 -0.043693
				CHANNELS 3 Zrotation Yrotation Xrotation
				JOINT LeftToe
				{
					OFFSET 0.026358 -0.055791 0.119288
					CHANNELS 3 Zrotation Yrotation Xrotation
					End Site
					{
						OFFSET 0.000000 0.000000 0.000000
					}
				}
			}
		}
	}
	JOINT RightUpLeg
	{
		OFFSET -0.067670 -0.090522 -0.004320
		CHANNELS 3 Zrotation Yrotation Xrotation
		JOINT RightLeg
		{
			OFFSET -0.038290 -0.382569 -0.008850
			CHANNELS 3 Zrotation Yrotation Xrotation
			JOINT RightFoot
			{
				OFFSET 0.015774 -0.398415 -0.042312
				CHANNELS 3 Zrotation Yrotation Xrotation
				JOINT RightToe
				{
					OFFSET -0.025372 -0.048144 0.123348
					CHANNELS 3 Zrotation Yrotation Xrotation
					End Site
					{
						OFFSET 0.000000 0.000000 0.000000
					}
				}
			}
		}
	}
	JOINT Spine
	{
		OFFSET -0.002533 0.108963 -0.026696
		CHANNELS 3 Zrotation Yrotation Xrotation
		JOINT Spine1
		{
			OFFSET 0.005487 0.135180 0.001092
			CHANNELS 3 Zrotation Yrotation Xrotation
			JOINT Spine2
			{
				OFFSET 0.001457 0.052922 0.025425
				CHANNELS 3 Zrotation Yrotation Xrotation
				JOINT Neck
				{
					OFFSET -0.002778 0.213870 -0.042857
					CHANNELS 3 Zrotation Yrotation Xrotation
					JOINT Head
					{
						OFFSET 0.005152 0.064970 0.051349
						CHANNELS 3 Zrotation Yrotation Xrotation
						End Site
						{
							OFFSET 0.000000 0.000000 0.000000
						}
					}
				}
				JOINT LeftShoulder
				{
					OFFSET 0.078845 0.121749 -0.034090
					CHANNELS 3 Zrotation Yrotation Xrotation
					JOINT LeftArm
					{
						OFFSET 0.090977 0.030469 -0.008868
						CHANNELS 3 Zrotation Yrotation Xrotation
						JOINT LeftForeArm
						{
							OFFSET 0.259612 -0.012772 -0.027456
							CHANNELS 3 Zrotation Yrotation Xrotation
							JOINT LeftHand
							{
								OFFSET 0.249234 0.008986 -0.001171
								CHANNELS 3 Zrotation Yrotation Xrotation
								End Site
								{
									OFFSET 0.000000 0.000000 0.000000
								}
							}
						}
					}
				}
				JOINT RightShoulder
				{
					OFFSET -0.081759 0.118833 -0.038615
					CHANNELS 3 Zrotation Yrotation Xrotation
					JOINT RightArm
					{
						OFFSET -0.096012 0.032551 -0.009143
						CHANNELS 3 Zrotation Yrotation Xrotation
						JOINT RightForeArm
						{
							OFFSET -0.253742 -0.013329 -0.021401
							CHANNELS 3 Zrotation Yrotation Xrotation
							JOINT RightHand
							{
								OFFSET -0.255298 0.007772 -0.005559
								CHANNELS 3 Zrotation Yrotation Xrotation
								End Site
								{
									OFFSET 0.000000 0.000000 0.000000
								}
							}
						}
					}
				}
			}
		}
	}
}
MOTION
Frames: 7
Frame Time: 0.050000
0.000000 0.869776 0.000000 -1.511296 -0.585944 12.173359 9.751730 -0.359760 -40.539315 -18.213444 8.215172 42.308893 12.848984 24.879850 12.602409 0.000000 0.000000 0.000000 -6.948281 2.434753 -49.054568 12.269349 -5.173545 50.501150 -7.439467 -18.841988 0.782748 0.000000 0.000000 0.000000 4.961776 -2.865955 30.770917 -3.442236 1.308479 -32.190731 -2.440804 1.985030 32.273834 10.909065 -4.420847 -27.450607 0.000000 0.000000 0.000000 -9.269113 17.879259 -9.126737 -47.525431 17.048798 -13.890275 -88.797582 -50.499713 54.007094 0.000000 0.000000 0.000000 21.562863 -26.020877 -17.242464 42.562486 -19.931108 -12.024974 119.055668 49.761754 80.191007 0.000000 0.000000 0.000000 
0.002058 0.863006 -0.002938 -2.673408 -1.956575 14.543959 12.633330 0.989512 -43.127312 -21.032296 10.307056 43.134023 12.467582 24.579176 8.894986 0.000000 0.000000 0.000000 -6.328433 3.367744 -53.563782 13.262117 -5.785946 53.694485 -8.356726 -21.165437 2.807684 0.000000 0.000000 0.000000 4.627492 -2.724354 31.268993 -2.146756 1.117447 -33.950460 -1.795161 3.286798 33.975264 10.560818 -3.866203 -29.126672 0.000000 0.000000 0.000000 -9.421831 20.800277 -10.828765 -48.364747 17.371665 -14.281984 -90.495637 -46.275748 50.863374 0.000000 0.000000 0.000000 21.957423 -28.100624 -18.794316 42.599444 -19.238531 -11.841548 114.142382 49.184335 74.125550 0.000000 0.000000 0.000000 
0.003598 0.859459 -0.005997 -0.976317 -0.704624 14.825844 11.007865 0.095568 -43.292234 -21.741376 10.230443 42.518735 12.032679 24.280273 5.776043 0.000000 0.000000 0.000000 -8.122965 2.159205 -53.276728 13.771642 -6.374209 52.956166 -8.930650 -22.562698 -1.257585 0.000000 0.000000 0.000000 4.543266 -2.785893 31.192723 -2.692315 1.182530 -31.414201 -3.604069 0.803800 31.933663 9.595749 -4.078114 -26.020750 0.000000 0.000000 0.000000 -8.860597 22.389116 -11.289509 -47.521718 20.897639 -14.974999 -91.228015 -45.413374 50.857544 0.000000 0.000000 0.000000 26.148296 -26.205170 -19.643251 39.286967 -19.971166 -10.870064 115.779394 49.359025 74.531473 0.000000 0.000000 0.000000 
0.004396 0.856700 -0.008913 -0.971510 -0.054737 15.563341 11.516894 0.182476 -45.553272 -22.758586 11.096605 44.561515 11.954453 24.192880 5.921383 0.000000 0.000000 0.000000 -8.235738 2.031533 -56.592886 13.846251 -6.920063 55.649376 -8.893210 -22.240804 2.157428 0.000000 0.000000 0.000000 4.616614 -3.021897 32.684232 -3.502269 1.283010 -34.483170 -3.190648 0.959140 34.356538 9.596104 -3.893362 -27.234852 0.000000 0.000000 0.000000 -9.580431 22.539490 -11.694804 -45.733278 21.674623 -14.801209 -94.695824 -43.297592 50.810972 0.000000 0.000000 0.000000 26.460435 -27.757858 -20.872287 37.868396 -22.006317 -11.046590 116.990952 46.572555 71.783048 0.000000 0.000000 0.000000 
0.004789 0.852223 -0.011138 -0.901557 0.811935 15.901860 11.923975 0.148171 -46.358357 -23.618327 11.481283 45.059909 11.589924 23.781761 4.158535 0.000000 0.000000 0.000000 -8.281467 1.744712 -56.979231 13.759149 -6.997860 55.021861 -8.920430 -22.342248 0.732990 0.000000 0.000000 0.000000 3.884320 -2.980011 34.043515 -2.192724 1.117169 -34.033369 -3.423204 0.912780 33.377900 8.819428 -3.325524 -27.295139 0.000000 0.000000 0.000000 -9.169677 22.784680 -11.752380 -46.056871 23.442531 -15.458183 -94.897292 -41.489631 48.455811 0.000000 0.000000 0.000000 26.405561 -27.005925 -20.177879 37.965157 -22.635233 -11.197043 115.047110 47.962134 71.730343 0.000000 0.000000 0.000000 
0.004986 0.849104 -0.012211 -0.862276 1.218590 16.325445 12.632534 0.342624 -47.521221 -25.181303 12.390033 45.461238 12.227128 24.880524 4.884172 0.000000 0.000000 0.000000 -8.345389 1.602939 -57.991489 13.497235 -7.018345 55.816478 -8.477552 -21.345677 -0.570642 0.000000 0.000000 0.000000 4.020902 -3.194785 35.250192 -2.793087 1.184488 -35.410282 -3.141362 1.187825 34.089862 9.126987 -3.377025 -27.748496 0.000000 0.000000 0.000000 -9.153746 22.411025 -11.640274 -45.326200 23.594255 -15.320669 -94.095612 -39.909398 45.771650 0.000000 0.000000 0.000000 26.422330 -27.347214 -20.351440 37.606451 -23.734001 -11.380169 113.784792 47.632523 69.942090 0.000000 0.000000 0.000000 
0.005260 0.845788 -0.012165 -0.964345 1.621685 16.767973 13.157801 0.461437 -48.127270 -26.142757 12.813427 45.283007 12.661149 25.729859 4.495552 0.000000 0.000000 0.000000 -8.415611 1.450482 -58.637203 13.762031 -7.299977 55.875465 -8.671425 -21.828884 -1.008141 0.000000 0.000000 0.000000 3.768680 -3.180940 35.540557 -2.305270 1.127056 -34.593068 -3.102642 1.030037 33.061880 8.536906 -3.133051 -26.848910 0.000000 0.000000 0.000000 -9.453583 22.968787 -12.031217 -44.228951 24.039642 -14.948581 -94.163420 -38.921023 44.405354 0.000000 0.000000 0.000000 26.657392 -26.645864 -19.923293 37.330110 -23.412764 -11.150800 111.126014 48.269602 68.037841 0.000000 0.000000 0.000000 
